<mxfile host="app.diagrams.net" agent="Mozilla/5.0 (X11; Ubuntu; Linux x86_64; rv:139.0) Gecko/20100101 Firefox/139.0" version="27.1.6">
  <diagram name="Page-1" id="POaLV1qd_8ivgcaJ0k6t">
    <mxGraphModel dx="1356" dy="721" grid="1" gridSize="10" guides="1" tooltips="1" connect="1" arrows="1" fold="1" page="1" pageScale="1" pageWidth="850" pageHeight="1100" math="0" shadow="0">
      <root>
        <mxCell id="0" />
        <mxCell id="1" parent="0" />
        <mxCell id="URa2SMM36MfCH6HbQujx-1" value="" style="rounded=1;whiteSpace=wrap;html=1;strokeColor=none;strokeWidth=3;align=center;verticalAlign=middle;fontFamily=Helvetica;fontSize=12;fontColor=default;fillColor=#142037;" vertex="1" parent="1">
          <mxGeometry x="420" y="340" width="790" height="610" as="geometry" />
        </mxCell>
        <mxCell id="URa2SMM36MfCH6HbQujx-2" style="edgeStyle=orthogonalEdgeStyle;rounded=0;orthogonalLoop=1;jettySize=auto;html=1;exitX=0.5;exitY=1;exitDx=0;exitDy=0;" edge="1" parent="1">
          <mxGeometry relative="1" as="geometry">
            <mxPoint x="250" y="740" as="sourcePoint" />
            <mxPoint x="250" y="740" as="targetPoint" />
          </mxGeometry>
        </mxCell>
        <mxCell id="URa2SMM36MfCH6HbQujx-3" value="&lt;div&gt;&lt;font style=&quot;font-size: 23px;&quot;&gt;DOCUMENTS&lt;/font&gt;&lt;/div&gt;&lt;div&gt;&lt;font style=&quot;font-size: 23px;&quot;&gt;&lt;u&gt;&lt;br&gt;&lt;/u&gt;&lt;/font&gt;&lt;/div&gt;&lt;div&gt;&lt;table&gt;&lt;tbody&gt;&lt;tr align=&quot;left&quot;&gt;&lt;td&gt;&lt;font&gt;TEXT_DOC_ID&lt;/font&gt;&lt;/td&gt;&lt;/tr&gt;&lt;tr align=&quot;left&quot;&gt;&lt;td&gt;&lt;font&gt;&lt;span&gt;TEXT_CHAR_BEGIN&lt;/span&gt;&lt;/font&gt;&lt;/td&gt;&lt;/tr&gt;&lt;tr align=&quot;left&quot;&gt;&lt;td&gt;&lt;font&gt;TEXT_CHAR_END&lt;/font&gt;&lt;/td&gt;&lt;/tr&gt;&lt;tr align=&quot;left&quot;&gt;&lt;td&gt;&lt;font&gt;TEXT&lt;/font&gt;&lt;/td&gt;&lt;/tr&gt;&lt;/tbody&gt;&lt;/table&gt;&lt;br&gt;&lt;/div&gt;" style="rounded=1;whiteSpace=wrap;html=1;strokeColor=#22D234;strokeWidth=3;align=center;verticalAlign=middle;fontFamily=Helvetica;fontSize=12;fontColor=default;labelBackgroundColor=none;fillColor=#A2D2A4;" vertex="1" parent="1">
          <mxGeometry x="480" y="390" width="200" height="170" as="geometry" />
        </mxCell>
        <mxCell id="URa2SMM36MfCH6HbQujx-4" value="&lt;div&gt;&lt;font style=&quot;font-size: 23px;&quot;&gt;&lt;font&gt;NAMED_ENTITY_VIEW&lt;/font&gt;&lt;/font&gt;&lt;/div&gt;&lt;div&gt;&lt;br&gt;&lt;table&gt;&lt;tbody&gt;&lt;tr&gt;&lt;td align=&quot;left&quot;&gt;&lt;font&gt;TEXT_DOC_ID&lt;/font&gt;&lt;/td&gt;            &lt;td&gt;&lt;br&gt;&lt;/td&gt;            &lt;td&gt;&lt;br&gt;&lt;/td&gt;            &lt;td&gt;&lt;br&gt;&lt;/td&gt;            &lt;td&gt;&lt;br&gt;&lt;/td&gt;            &lt;td&gt;&lt;br&gt;&lt;/td&gt;        &lt;/tr&gt;        &lt;tr&gt;            &lt;td align=&quot;left&quot;&gt;&lt;font&gt;TEXT_CHAR_BEGIN&lt;/font&gt;&lt;/td&gt;            &lt;td&gt;&lt;br&gt;&lt;/td&gt;            &lt;td&gt;&lt;br&gt;&lt;/td&gt;            &lt;td&gt;&lt;br&gt;&lt;/td&gt;            &lt;td&gt;&lt;br&gt;&lt;/td&gt;            &lt;td&gt;&lt;br&gt;&lt;/td&gt;        &lt;/tr&gt;        &lt;tr&gt;            &lt;td align=&quot;left&quot;&gt;&lt;font&gt;TEXT_CHAR_END&lt;/font&gt;&lt;/td&gt;            &lt;td&gt;&lt;br&gt;&lt;/td&gt;            &lt;td&gt;&lt;br&gt;&lt;/td&gt;            &lt;td&gt;&lt;br&gt;&lt;/td&gt;            &lt;td&gt;&lt;br&gt;&lt;/td&gt;            &lt;td&gt;&lt;br&gt;&lt;/td&gt;        &lt;/tr&gt;        &lt;tr&gt;            &lt;td align=&quot;left&quot;&gt;&lt;font&gt;ENTITY_TYPE&lt;/font&gt;&lt;/td&gt;            &lt;td&gt;&lt;br&gt;&lt;/td&gt;            &lt;td&gt;&lt;br&gt;&lt;/td&gt;            &lt;td&gt;&lt;br&gt;&lt;/td&gt;            &lt;td&gt;&lt;br&gt;&lt;/td&gt;            &lt;td&gt;&lt;br&gt;&lt;/td&gt;        &lt;/tr&gt;        &lt;tr&gt;            &lt;td align=&quot;left&quot;&gt;&lt;font&gt;ENTITY_SCORE&lt;/font&gt;&lt;/td&gt;            &lt;td&gt;&lt;br&gt;&lt;/td&gt;            &lt;td&gt;&lt;br&gt;&lt;/td&gt;            &lt;td&gt;&lt;br&gt;&lt;/td&gt;            &lt;td&gt;&lt;br&gt;&lt;/td&gt;            &lt;td&gt;&lt;br&gt;&lt;/td&gt;        &lt;/tr&gt;        &lt;tr&gt;            &lt;td align=&quot;left&quot;&gt;&lt;font&gt;ENTITY&lt;/font&gt;&lt;/td&gt;            &lt;td&gt;&lt;br&gt;&lt;/td&gt;            &lt;td&gt;&lt;br&gt;&lt;/td&gt;            &lt;td&gt;&lt;br&gt;&lt;/td&gt;            &lt;td&gt;&lt;br&gt;&lt;/td&gt;            &lt;td&gt;&lt;br&gt;&lt;/td&gt;        &lt;/tr&gt;        &lt;tr&gt;            &lt;td align=&quot;left&quot;&gt;&lt;font&gt;ENTITY_DOC_ID&lt;/font&gt;&lt;/td&gt;            &lt;td&gt;&lt;br&gt;&lt;/td&gt;            &lt;td&gt;&lt;br&gt;&lt;/td&gt;            &lt;td&gt;&lt;br&gt;&lt;/td&gt;            &lt;td&gt;&lt;br&gt;&lt;/td&gt;            &lt;td&gt;&lt;br&gt;&lt;/td&gt;        &lt;/tr&gt;        &lt;tr&gt;            &lt;td align=&quot;left&quot;&gt;&lt;font&gt;ENTITY_CHAR_BEGIN&lt;/font&gt;&lt;/td&gt;            &lt;td&gt;&lt;br&gt;&lt;/td&gt;            &lt;td&gt;&lt;br&gt;&lt;/td&gt;            &lt;td&gt;&lt;br&gt;&lt;/td&gt;            &lt;td&gt;&lt;br&gt;&lt;/td&gt;            &lt;td&gt;&lt;br&gt;&lt;/td&gt;        &lt;/tr&gt;        &lt;tr&gt;            &lt;td align=&quot;left&quot;&gt;&lt;font&gt;ENTITY_CHAR_END&lt;/font&gt;&lt;/td&gt;            &lt;td&gt;&lt;br&gt;&lt;/td&gt;            &lt;td&gt;&lt;br&gt;&lt;/td&gt;            &lt;td&gt;&lt;br&gt;&lt;/td&gt;            &lt;td&gt;&lt;br&gt;&lt;/td&gt;            &lt;td&gt;&lt;br&gt;&lt;/td&gt;        &lt;/tr&gt;        &lt;tr&gt;            &lt;td align=&quot;left&quot;&gt;&lt;font&gt;ERROR_MESSAGE&lt;/font&gt;&lt;/td&gt;            &lt;td&gt;&lt;br&gt;&lt;/td&gt;            &lt;td&gt;&lt;br&gt;&lt;/td&gt;            &lt;td&gt;&lt;br&gt;&lt;/td&gt;            &lt;td&gt;&lt;br&gt;&lt;/td&gt;            &lt;td&gt;&lt;br&gt;&lt;/td&gt;        &lt;/tr&gt;        &lt;tr align=&quot;left&quot;&gt;            &lt;td&gt;&lt;font&gt;SETUP&lt;/font&gt;&lt;/td&gt;&lt;/tr&gt;&lt;/tbody&gt;&lt;/table&gt;&lt;br&gt;&lt;/div&gt;" style="rounded=1;whiteSpace=wrap;html=1;strokeColor=#22D234;strokeWidth=3;align=center;verticalAlign=middle;fontFamily=Helvetica;fontSize=12;fontColor=default;labelBackgroundColor=none;fillColor=#A2D2A4;" vertex="1" parent="1">
          <mxGeometry x="480" y="620" width="300" height="290" as="geometry" />
        </mxCell>
        <mxCell id="URa2SMM36MfCH6HbQujx-5" value="&lt;div&gt;&lt;font style=&quot;font-size: 23px;&quot;&gt;KEYWORD_SEARCH_VIEW&lt;/font&gt;&lt;/div&gt;&lt;div&gt;&lt;br&gt;&lt;br&gt;&lt;table&gt;&lt;tbody&gt;&lt;tr&gt;&lt;td align=&quot;left&quot;&gt;&lt;font&gt;TEXT_DOC_ID&lt;/font&gt;&lt;/td&gt;            &lt;td&gt;&lt;br&gt;&lt;/td&gt;            &lt;td&gt;&lt;br&gt;&lt;/td&gt;            &lt;td&gt;&lt;br&gt;&lt;/td&gt;            &lt;td&gt;&lt;br&gt;&lt;/td&gt;            &lt;td&gt;&lt;br&gt;&lt;/td&gt;        &lt;/tr&gt;        &lt;tr&gt;            &lt;td align=&quot;left&quot;&gt;&lt;font&gt;TEXT_CHAR_BEGIN&lt;/font&gt;&lt;/td&gt;            &lt;td&gt;&lt;br&gt;&lt;/td&gt;            &lt;td&gt;&lt;br&gt;&lt;/td&gt;            &lt;td&gt;&lt;br&gt;&lt;/td&gt;            &lt;td&gt;&lt;br&gt;&lt;/td&gt;            &lt;td&gt;&lt;br&gt;&lt;/td&gt;        &lt;/tr&gt;        &lt;tr&gt;            &lt;td align=&quot;left&quot;&gt;&lt;font&gt;TEXT_CHAR_END&lt;/font&gt;&lt;/td&gt;            &lt;td&gt;&lt;br&gt;&lt;/td&gt;            &lt;td&gt;&lt;br&gt;&lt;/td&gt;            &lt;td&gt;&lt;br&gt;&lt;/td&gt;            &lt;td&gt;&lt;br&gt;&lt;/td&gt;            &lt;td&gt;&lt;br&gt;&lt;/td&gt;        &lt;/tr&gt;        &lt;tr&gt;            &lt;td align=&quot;left&quot;&gt;&lt;font&gt;KEYWORD&lt;/font&gt;&lt;/td&gt;            &lt;td&gt;&lt;br&gt;&lt;/td&gt;            &lt;td&gt;&lt;br&gt;&lt;/td&gt;            &lt;td&gt;&lt;br&gt;&lt;/td&gt;            &lt;td&gt;&lt;br&gt;&lt;/td&gt;            &lt;td&gt;&lt;br&gt;&lt;/td&gt;        &lt;/tr&gt;        &lt;tr&gt;            &lt;td align=&quot;left&quot;&gt;&lt;font&gt;KEYWORD_SCORE&lt;/font&gt;&lt;/td&gt;            &lt;td&gt;&lt;br&gt;&lt;/td&gt;            &lt;td&gt;&lt;br&gt;&lt;/td&gt;            &lt;td&gt;&lt;br&gt;&lt;/td&gt;            &lt;td&gt;&lt;br&gt;&lt;/td&gt;            &lt;td&gt;&lt;br&gt;&lt;/td&gt;        &lt;/tr&gt;        &lt;tr&gt;            &lt;td align=&quot;left&quot;&gt;&lt;font&gt;KEYWORD_DOC_ID&lt;/font&gt;&lt;/td&gt;            &lt;td&gt;&lt;br&gt;&lt;/td&gt;            &lt;td&gt;&lt;br&gt;&lt;/td&gt;            &lt;td&gt;&lt;br&gt;&lt;/td&gt;            &lt;td&gt;&lt;br&gt;&lt;/td&gt;            &lt;td&gt;&lt;br&gt;&lt;/td&gt;        &lt;/tr&gt;        &lt;tr&gt;            &lt;td align=&quot;left&quot;&gt;&lt;font&gt;KEYWORD_CHAR_BEGIN&lt;/font&gt;&lt;/td&gt;            &lt;td&gt;&lt;br&gt;&lt;/td&gt;            &lt;td&gt;&lt;br&gt;&lt;/td&gt;            &lt;td&gt;&lt;br&gt;&lt;/td&gt;            &lt;td&gt;&lt;br&gt;&lt;/td&gt;            &lt;td&gt;&lt;br&gt;&lt;/td&gt;        &lt;/tr&gt;        &lt;tr&gt;            &lt;td align=&quot;left&quot;&gt;&lt;font&gt;KEYWORD_CHAR_END&lt;/font&gt;&lt;/td&gt;            &lt;td&gt;&lt;br&gt;&lt;/td&gt;            &lt;td&gt;&lt;br&gt;&lt;/td&gt;            &lt;td&gt;&lt;br&gt;&lt;/td&gt;            &lt;td&gt;&lt;br&gt;&lt;/td&gt;            &lt;td&gt;&lt;br&gt;&lt;/td&gt;        &lt;/tr&gt;        &lt;tr&gt;            &lt;td align=&quot;left&quot;&gt;&lt;font&gt;ERROR_MESSAGE&lt;/font&gt;&lt;/td&gt;            &lt;td&gt;&lt;br&gt;&lt;/td&gt;            &lt;td&gt;&lt;br&gt;&lt;/td&gt;            &lt;td&gt;&lt;br&gt;&lt;/td&gt;            &lt;td&gt;&lt;br&gt;&lt;/td&gt;            &lt;td&gt;&lt;br&gt;&lt;/td&gt;        &lt;/tr&gt;        &lt;tr&gt;            &lt;td align=&quot;left&quot;&gt;&lt;font&gt;SETUP&lt;/font&gt;&lt;/td&gt;&lt;/tr&gt;&lt;/tbody&gt;&lt;/table&gt;&lt;br&gt;&lt;/div&gt;" style="rounded=1;whiteSpace=wrap;html=1;strokeColor=#22D234;strokeWidth=3;align=center;verticalAlign=middle;fontFamily=Helvetica;fontSize=12;fontColor=default;labelBackgroundColor=none;fillColor=#A2D2A4;" vertex="1" parent="1">
          <mxGeometry x="820" y="620" width="340" height="290" as="geometry" />
        </mxCell>
        <mxCell id="URa2SMM36MfCH6HbQujx-8" value="&lt;div&gt;&lt;font style=&quot;font-size: 23px;&quot;&gt;&lt;font&gt;TOPIC_CLASSIFIER_VIEW&lt;/font&gt;&lt;/font&gt;&lt;/div&gt;&lt;div&gt;&lt;br&gt;&lt;table&gt;&lt;tbody&gt;&lt;tr align=&quot;left&quot;&gt;&lt;td&gt;TEXT_DOC_ID&lt;/td&gt;&lt;/tr&gt;&lt;tr align=&quot;left&quot;&gt;&lt;td&gt;TEXT_CHAR_BEGIN&lt;/td&gt;&lt;/tr&gt;&lt;tr align=&quot;left&quot;&gt;&lt;td&gt;TEXT_CHAR_END&lt;/td&gt;&lt;/tr&gt;&lt;tr align=&quot;left&quot;&gt;&lt;td&gt;TOPIC&lt;/td&gt;&lt;/tr&gt;&lt;tr align=&quot;left&quot;&gt;&lt;td&gt;TOPIC_SCORE&lt;/td&gt;&lt;/tr&gt;&lt;tr align=&quot;left&quot;&gt;&lt;td&gt;TOPIC_RANK&lt;/td&gt;&lt;/tr&gt;&lt;tr align=&quot;left&quot;&gt;&lt;td&gt;ERROR_MESSAGE&lt;/td&gt;&lt;/tr&gt;&lt;tr align=&quot;left&quot;&gt;&lt;td&gt;SETUP&lt;/td&gt;&lt;/tr&gt;&lt;/tbody&gt;&lt;/table&gt;&lt;br&gt;&lt;/div&gt;" style="rounded=1;whiteSpace=wrap;html=1;strokeColor=#22D234;strokeWidth=3;align=center;verticalAlign=middle;fontFamily=Helvetica;fontSize=12;fontColor=default;labelBackgroundColor=none;fillColor=#A2D2A4;" vertex="1" parent="1">
          <mxGeometry x="820" y="370" width="340" height="230" as="geometry" />
        </mxCell>
        <mxCell id="URa2SMM36MfCH6HbQujx-9" style="edgeStyle=orthogonalEdgeStyle;rounded=0;orthogonalLoop=1;jettySize=auto;html=1;exitX=1;exitY=0.5;exitDx=0;exitDy=0;entryX=0;entryY=0.5;entryDx=0;entryDy=0;fontFamily=Helvetica;fontSize=12;fontColor=default;labelBackgroundColor=none;strokeColor=#B3B3B3;strokeWidth=4;" edge="1" parent="1" source="URa2SMM36MfCH6HbQujx-12" target="URa2SMM36MfCH6HbQujx-16">
          <mxGeometry relative="1" as="geometry">
            <Array as="points">
              <mxPoint x="800" y="480" />
              <mxPoint x="800" y="450" />
            </Array>
          </mxGeometry>
        </mxCell>
        <mxCell id="URa2SMM36MfCH6HbQujx-10" style="edgeStyle=orthogonalEdgeStyle;rounded=0;orthogonalLoop=1;jettySize=auto;html=1;exitX=1;exitY=0.5;exitDx=0;exitDy=0;entryX=0;entryY=0.5;entryDx=0;entryDy=0;fontFamily=Helvetica;fontSize=12;fontColor=default;labelBackgroundColor=none;strokeWidth=4;strokeColor=#B3B3B3;" edge="1" parent="1" source="URa2SMM36MfCH6HbQujx-12" target="URa2SMM36MfCH6HbQujx-15">
          <mxGeometry relative="1" as="geometry">
            <Array as="points">
              <mxPoint x="800" y="480" />
              <mxPoint x="800" y="720" />
            </Array>
          </mxGeometry>
        </mxCell>
        <mxCell id="URa2SMM36MfCH6HbQujx-11" style="edgeStyle=orthogonalEdgeStyle;rounded=0;orthogonalLoop=1;jettySize=auto;html=1;exitX=1;exitY=0.5;exitDx=0;exitDy=0;entryX=1;entryY=0.5;entryDx=0;entryDy=0;fontFamily=Helvetica;fontSize=12;fontColor=default;labelBackgroundColor=none;strokeWidth=4;strokeColor=#B3B3B3;" edge="1" parent="1" source="URa2SMM36MfCH6HbQujx-12" target="URa2SMM36MfCH6HbQujx-14">
          <mxGeometry relative="1" as="geometry">
            <Array as="points">
              <mxPoint x="800" y="480" />
              <mxPoint x="800" y="700" />
            </Array>
          </mxGeometry>
        </mxCell>
        <mxCell id="URa2SMM36MfCH6HbQujx-12" value="" style="rounded=1;whiteSpace=wrap;html=1;strokeColor=#22D234;strokeWidth=3;align=center;verticalAlign=middle;fontFamily=Helvetica;fontSize=12;fontColor=default;labelBackgroundColor=none;fillColor=none;" vertex="1" parent="1">
          <mxGeometry x="490" y="450" width="140" height="60" as="geometry" />
        </mxCell>
        <mxCell id="URa2SMM36MfCH6HbQujx-13" value="&lt;font style=&quot;font-size: 14px;&quot;&gt;&lt;span style=&quot;color: rgb(179, 179, 179);&quot;&gt;Document Span&lt;/span&gt;&lt;/font&gt;" style="text;html=1;align=center;verticalAlign=middle;whiteSpace=wrap;rounded=0;fontFamily=Helvetica;fontSize=12;fontColor=default;labelBackgroundColor=none;" vertex="1" parent="1">
          <mxGeometry x="670" y="470" width="140" height="50" as="geometry" />
        </mxCell>
        <mxCell id="URa2SMM36MfCH6HbQujx-14" value="" style="rounded=1;whiteSpace=wrap;html=1;strokeColor=#22D234;strokeWidth=3;align=center;verticalAlign=middle;fontFamily=Helvetica;fontSize=12;fontColor=default;labelBackgroundColor=none;fillColor=none;" vertex="1" parent="1">
          <mxGeometry x="490" y="670" width="140" height="60" as="geometry" />
        </mxCell>
        <mxCell id="URa2SMM36MfCH6HbQujx-15" value="" style="rounded=1;whiteSpace=wrap;html=1;strokeColor=#22D234;strokeWidth=3;align=center;verticalAlign=middle;fontFamily=Helvetica;fontSize=12;fontColor=default;labelBackgroundColor=none;fillColor=none;" vertex="1" parent="1">
          <mxGeometry x="840" y="690" width="140" height="60" as="geometry" />
        </mxCell>
        <mxCell id="URa2SMM36MfCH6HbQujx-16" value="" style="rounded=1;whiteSpace=wrap;html=1;strokeColor=#22D234;strokeWidth=3;align=center;verticalAlign=middle;fontFamily=Helvetica;fontSize=12;fontColor=default;labelBackgroundColor=none;fillColor=none;" vertex="1" parent="1">
          <mxGeometry x="840" y="420" width="140" height="60" as="geometry" />
        </mxCell>
      </root>
    </mxGraphModel>
  </diagram>
</mxfile>
